# xmcd
#
# Track frame offsets:
#	187
#	24257
#	42225
#
# Disc length: 882 seconds
#
# Revision: 1
# Processed by: cddbd v1.5.1PL0 Copyright (c) Steve Scherf et al.
# Submitted via: CDex 1.50Beta5
#
DISCID=18037003
DTITLE=KAN - 言えずの I LOVE YOU
DYEAR=1900
DGENRE=Pop
TTITLE0=言えずのI LOVE YOU
TTITLE1=Day By Day
TTITLE2=言えずのI LOVE YOU(オリジナルカラオケ)
EXTD=
EXTT0=
EXTT1=
EXTT2=
PLAYORDER=
